<svg xmlns="http://www.w3.org/2000/svg" version="1.0" width="175.000000pt" height="175.000000pt" viewBox="0 0 175.000000 175.000000" preserveAspectRatio="xMidYMid meet">

<g transform="translate(0.000000,175.000000) scale(0.100000,-0.100000)" fill="#5c43c2" stroke="none">
<path d="M471 1703 c1 -10 5 -29 9 -43 7 -22 8 -21 9 12 1 20 -3 40 -9 43 -5 3 -10 -2 -9 -12z" fill="#5c43c2"/>
<path d="M1172 1698 c-7 -7 -13 -23 -13 -37 -1 -17 -3 -20 -6 -8 -5 19 -18 22 -28 6 -4 -5 1 -19 11 -30 22 -25 -1 -27 -35 -3 -19 14 -25 14 -32 3 -5 -8 -9 -20 -9 -28 0 -11 4 -10 13 4 10 12 16 14 21 7 4 -7 23 -12 42 -12 38 0 40 -6 19 -57 -8 -20 -13 -38 -11 -41 6 -5 46 58 46 72 0 5 7 17 15 26 14 16 14 17 -8 13 -24 -5 -24 -4 -17 44 9 54 8 57 -8 41z" fill="#5c43c2"/>
<path d="M557 1658 c-3 -9 -22 -21 -42 -28 -32 -10 -39 -10 -57 7 -21 17 -21 17 -15 0 4 -10 7 -33 7 -50 1 -27 2 -29 11 -14 17 30 26 19 25 -32 -2 -43 0 -48 14 -41 9 5 22 16 29 24 17 20 31 11 31 -19 0 -13 5 -27 10 -30 17 -10 11 -35 -7 -35 -12 0 -9 -5 11 -15 15 -8 30 -15 31 -15 2 0 -6 26 -17 57 -12 35 -17 69 -14 87 6 27 5 28 -11 14 -23 -19 -53 -30 -53 -19 0 5 10 16 23 25 l22 17 -25 -7 -25 -6 22 21 c12 11 29 21 38 21 16 0 17 5 6 34 -6 17 -8 17 -14 4z" fill="#5c43c2"/>
<path d="M1066 1566 c-15 -24 -15 -25 14 -31 17 -4 30 -11 30 -16 0 -5 5 -9 10 -9 18 0 11 29 -10 42 -24 15 -27 33 -4 24 8 -3 12 -2 9 4 -11 17 -32 11 -49 -14z" fill="#5c43c2"/>
<path d="M981 1534 c-1 -6 -21 -32 -45 -57 -33 -35 -51 -47 -73 -47 -16 0 -38 -7 -49 -15 -17 -13 -14 -14 41 -15 49 0 62 4 70 19 6 10 23 37 38 59 16 23 27 47 24 54 -3 7 -6 8 -6 2z" fill="#5c43c2"/>
<path d="M659 1485 c-3 -27 -2 -54 3 -59 17 -20 6 -36 -38 -56 -56 -24 -54 -24 -54 -5 0 8 -7 15 -15 15 -10 0 -15 -10 -15 -31 0 -29 -2 -31 -28 -26 -26 5 -28 3 -28 -27 0 -19 -11 -46 -26 -67 -44 -59 -42 -66 6 -17 25 26 46 56 46 68 0 14 7 20 21 20 11 0 37 13 57 30 21 16 55 32 79 36 42 6 42 7 26 31 -9 13 -19 49 -22 81 l-7 57 -5 -50z" fill="#5c43c2"/>
<path d="M1060 1500 c-11 -7 -4 -10 25 -10 29 0 36 3 25 10 -8 5 -19 10 -25 10 -5 0 -17 -5 -25 -10z" fill="#5c43c2"/>
<path d="M1012 1478 c3 -7 15 -14 29 -16 23 -2 23 -2 5 13 -24 18 -39 20 -34 3z" fill="#5c43c2"/>
<path d="M805 1463 c-14 -8 -25 -18 -25 -24 0 -6 7 -6 19 1 11 5 38 10 60 10 23 0 41 4 41 9 0 15 -68 18 -95 4z" fill="#5c43c2"/>
<path d="M1070 1451 c-5 -11 -10 -35 -9 -53 l1 -33 9 35 c6 19 19 43 31 53 l20 17 -21 0 c-11 0 -25 -9 -31 -19z" fill="#5c43c2"/>
<path d="M1528 1438 c7 -7 12 -21 12 -32 0 -19 1 -19 16 -4 21 21 11 48 -18 48 -17 0 -19 -3 -10 -12z" fill="#5c43c2"/>
<path d="M1019 1414 c-22 -25 -22 -26 -3 -16 12 6 24 18 28 27 8 21 3 19 -25 -11z" fill="#5c43c2"/>
<path d="M606 1394 c-18 -26 -18 -26 3 -15 11 7 21 18 21 26 0 20 -2 19 -24 -11z" fill="#5c43c2"/>
<path d="M1488 1410 c-9 -6 -31 -12 -48 -14 -18 -2 -40 -12 -50 -22 -20 -20 -28 -77 -15 -106 4 -10 4 -25 1 -34 -5 -14 -9 -15 -29 -2 -26 17 -87 31 -87 20 0 -5 14 -21 30 -37 17 -16 30 -36 30 -46 0 -9 7 -22 16 -30 13 -11 14 -9 8 17 -4 16 -13 36 -20 45 -24 27 -15 34 11 9 22 -20 28 -22 51 -11 22 10 25 16 21 41 -5 24 -2 31 27 48 24 15 36 31 46 66 7 26 20 51 29 56 9 5 12 9 6 9 -5 0 -18 -4 -27 -9z m-38 -55 c0 -26 -39 -75 -60 -75 -5 0 -10 14 -10 30 0 23 6 33 25 42 14 6 25 15 25 20 0 4 5 8 10 8 6 0 10 -11 10 -25z" fill="#5c43c2"/>
<path d="M745 1400 c28 -12 37 -12 30 0 -3 6 -16 10 -28 9 -21 0 -21 -1 -2 -9z" fill="#5c43c2"/>
<path d="M258 1364 c-4 -5 -3 -27 2 -48 8 -34 7 -37 -11 -33 -17 5 -18 3 -4 -16 8 -12 15 -29 15 -39 0 -10 4 -18 9 -18 11 0 20 83 10 90 -4 3 -9 21 -11 40 -2 19 -6 30 -10 24z" fill="#5c43c2"/>
<path d="M1118 1349 c18 -7 22 -14 17 -30 -6 -19 -5 -20 15 -9 33 18 70 5 70 -24 0 -13 7 -26 15 -30 11 -4 15 2 15 23 0 16 -6 31 -12 34 -10 3 -10 7 0 20 12 15 10 15 -19 7 -35 -10 -69 -5 -69 11 0 5 -12 9 -27 8 -28 0 -28 0 -5 -10z" fill="#5c43c2"/>
<path d="M212 1329 c2 -7 10 -15 17 -17 8 -3 12 1 9 9 -2 7 -10 15 -17 17 -8 3 -12 -1 -9 -9z" fill="#5c43c2"/>
<path d="M351 1288 l-18 -43 -15 29 -15 30 -5 -38 c-2 -20 0 -39 4 -42 4 -3 8 2 8 11 0 36 19 1 25 -47 l7 -52 13 40 c12 37 26 154 18 154 -2 0 -12 -19 -22 -42z" fill="#5c43c2"/>
<path d="M456 1314 c-4 -9 -4 -19 -1 -22 2 -3 7 3 11 12 4 9 4 19 1 22 -2 3 -7 -3 -11 -12z" fill="#5c43c2"/>
<path d="M417 1255 c-11 -8 -21 -31 -23 -57 l-5 -43 17 29 c14 25 36 87 31 86 -1 0 -10 -7 -20 -15z" fill="#5c43c2"/>
<path d="M738 1256 c-109 -31 -188 -102 -242 -215 -28 -61 -31 -74 -31 -167 1 -99 2 -104 43 -187 48 -97 104 -154 192 -196 47 -22 69 -25 150 -26 88 0 101 3 161 32 173 86 256 277 195 452 -23 66 -89 136 -161 171 -67 32 -196 40 -260 15 -69 -26 -131 -92 -151 -160 -25 -89 -16 -162 29 -228 51 -74 102 -101 192 -102 86 0 144 28 189 93 36 51 41 123 12 167 -16 24 -23 27 -53 22 l-35 -6 4 44 c1 23 -1 41 -5 38 -4 -3 -14 1 -22 7 -22 19 -45 -5 -45 -46 0 -19 -5 -34 -10 -34 -6 0 -10 16 -8 35 3 52 -12 61 -61 36 -28 -15 -43 -30 -47 -49 -4 -15 -12 -31 -18 -37 -6 -5 -9 -9 -7 -8 11 7 31 -22 31 -45 0 -48 19 -9 23 48 4 50 4 50 3 -10 -1 -58 -3 -65 -21 -63 -25 2 -55 -14 -54 -30 0 -9 2 -9 6 0 3 8 14 11 27 7 33 -8 56 19 56 67 0 28 4 39 15 39 10 0 15 -10 15 -34 0 -44 24 -66 48 -43 12 13 16 33 14 88 -2 53 1 70 10 67 9 -3 14 -31 16 -83 3 -85 11 -99 51 -90 21 5 23 3 17 -21 -34 -134 -238 -138 -306 -4 -41 80 -19 173 58 242 34 31 50 37 105 43 103 11 154 -5 221 -72 55 -55 76 -104 76 -187 0 -85 -22 -137 -88 -203 -66 -66 -130 -93 -218 -93 -62 0 -81 5 -143 36 -86 43 -132 98 -161 192 -50 163 5 332 135 408 62 36 100 45 191 45 195 -1 334 -98 401 -280 l24 -66 -6 55 c-13 126 -105 243 -243 311 -60 29 -77 33 -167 35 -63 2 -117 -2 -147 -10z m112 -291 c0 -24 -5 -35 -15 -35 -15 0 -22 50 -8 63 15 15 23 5 23 -28z m50 -81 c0 -21 -4 -33 -10 -29 -5 3 -10 19 -10 36 0 16 5 29 10 29 6 0 10 -16 10 -36z" fill="#5c43c2"/>
<path d="M1395 1170 c-3 -5 -1 -10 4 -10 6 0 11 5 11 10 0 6 -2 10 -4 10 -3 0 -8 -4 -11 -10z" fill="#5c43c2"/>
<path d="M1397 1143 c-4 -3 -7 -11 -7 -17 0 -6 5 -5 12 2 6 6 9 14 7 17 -3 3 -9 2 -12 -2z" fill="#5c43c2"/>
<path d="M387 1112 c-5 -7 -13 -10 -18 -7 -5 4 -9 -20 -8 -57 l2 -63 19 55 c18 55 21 99 5 72z" fill="#5c43c2"/>
<path d="M1378 1101 c-28 -6 -27 -22 3 -34 12 -4 18 1 22 19 2 13 4 23 3 23 0 -1 -13 -4 -28 -8z" fill="#5c43c2"/>
<path d="M1380 1037 c5 -16 10 -45 11 -65 1 -36 1 -36 9 -9 5 16 21 44 35 64 l27 35 -32 -17 c-30 -15 -33 -15 -46 2 -13 16 -13 15 -4 -10z" fill="#5c43c2"/>
<path d="M347 819 c-3 -14 -18 -42 -31 -62 -14 -20 -23 -44 -20 -52 8 -21 19 -19 37 8 15 22 15 22 36 -23 20 -44 44 -80 53 -80 2 0 -9 27 -25 60 -16 33 -32 85 -36 117 -5 46 -8 53 -14 32z" fill="#5c43c2"/>
<path d="M1375 761 c-3 -5 -1 -12 5 -16 5 -3 10 1 10 9 0 18 -6 21 -15 7z" fill="#5c43c2"/>
<path d="M1362 665 c-7 -26 -26 -58 -47 -79 -19 -20 -35 -42 -35 -51 0 -9 -7 -18 -15 -21 -21 -9 -8 -24 21 -24 19 0 24 5 24 26 0 14 11 39 25 56 14 16 25 38 25 49 0 12 4 17 11 13 10 -6 7 -30 -7 -68 -4 -11 5 -19 31 -30 32 -14 37 -20 33 -41 -3 -16 1 -30 13 -41 18 -16 19 -16 19 8 0 14 -5 39 -11 57 -8 23 -8 44 -1 74 6 23 10 42 9 44 -2 1 -16 -9 -32 -23 -17 -14 -25 -23 -18 -20 15 8 25 -8 17 -27 -3 -9 -12 -13 -20 -10 -10 4 -14 24 -14 73 0 38 -4 71 -8 74 -5 3 -13 -15 -20 -39z" fill="#5c43c2"/>
<path d="M223 680 c-14 -6 -23 -18 -23 -30 0 -32 -29 -95 -39 -84 -5 5 -13 28 -18 51 l-8 42 -22 -40 c-21 -38 -21 -40 -2 -34 12 4 19 2 19 -7 0 -8 10 -28 23 -45 l23 -31 17 57 c9 31 17 67 17 79 0 27 16 29 23 3 3 -12 13 -19 28 -18 13 1 36 -2 52 -6 16 -5 27 -3 27 3 0 5 -8 10 -19 10 -10 0 -24 7 -31 15 -11 14 -15 14 -33 -2 -19 -18 -20 -17 -15 15 2 17 4 32 4 31 -1 0 -11 -4 -23 -9z" fill="#5c43c2"/>
<path d="M340 683 c5 -2 10 -18 10 -34 0 -21 5 -29 18 -29 11 0 13 3 6 8 -7 4 -14 18 -15 31 -2 14 -10 26 -17 27 -7 1 -8 0 -2 -3z" fill="#5c43c2"/>
<path d="M231 584 c-9 -20 -9 -25 0 -22 14 5 32 48 20 48 -4 0 -13 -12 -20 -26z" fill="#5c43c2"/>
<path d="M1473 578 c3 -21 1 -40 -4 -44 -6 -3 2 -17 17 -31 23 -21 31 -23 46 -14 30 18 48 13 60 -19 10 -29 34 -50 59 -50 8 0 8 4 -1 15 -7 8 -19 15 -26 15 -8 0 -16 11 -20 24 -3 14 -14 32 -25 42 -18 16 -20 16 -37 1 -21 -19 -42 -6 -42 24 0 9 -7 30 -16 45 l-16 29 5 -37z" fill="#5c43c2"/>
<path d="M417 548 c3 -24 10 -47 16 -53 7 -7 8 -4 3 9 -5 15 -2 17 14 13 24 -6 28 18 5 27 -9 3 -15 14 -13 23 2 10 -4 19 -14 21 -14 3 -15 -3 -11 -40z" fill="#5c43c2"/>
<path d="M1527 549 c4 -14 9 -17 16 -10 18 18 36 12 68 -21 26 -29 29 -30 18 -8 -20 44 -41 60 -75 60 -28 0 -31 -3 -27 -21z" fill="#5c43c2"/>
<path d="M110 547 c0 -7 11 -28 25 -47 30 -41 33 -25 4 24 -22 39 -29 44 -29 23z" fill="#5c43c2"/>
<path d="M1481 484 c0 -11 3 -14 6 -6 3 7 2 16 -1 19 -3 4 -6 -2 -5 -13z" fill="#5c43c2"/>
<path d="M530 465 c0 -19 44 -64 72 -74 17 -6 30 -10 27 -8 -2 2 -25 23 -51 47 -27 23 -48 39 -48 35z" fill="#5c43c2"/>
<path d="M511 445 c-1 -11 -4 -30 -7 -43 -5 -17 -3 -21 9 -16 8 3 18 1 22 -5 3 -6 19 -11 36 -11 16 0 29 -4 29 -10 0 -5 5 -10 11 -10 8 0 8 5 -1 15 -7 8 -21 15 -31 15 -17 0 -49 37 -62 70 -4 11 -6 9 -6 -5z" fill="#5c43c2"/>
<path d="M1150 416 c-28 -19 -70 -36 -110 -44 l-64 -14 24 -19 c21 -15 27 -16 35 -5 6 7 34 24 62 36 29 12 58 28 64 36 18 22 29 17 29 -13 0 -14 2 -24 4 -22 7 8 14 79 8 78 -4 -1 -27 -15 -52 -33z" fill="#5c43c2"/>
<path d="M1148 355 l-27 -31 30 -18 c24 -14 29 -15 29 -2 0 8 -6 16 -12 18 -10 4 -10 10 0 33 17 38 12 38 -20 0z" fill="#5c43c2"/>
<path d="M659 354 l-24 -26 23 7 c13 4 29 2 37 -5 10 -8 26 -9 57 -2 24 6 34 10 23 11 -11 1 -33 10 -50 21 -38 25 -37 25 -66 -6z" fill="#5c43c2"/>
<path d="M453 326 c-36 -26 -29 -46 17 -46 14 0 31 -4 39 -9 13 -8 13 -12 1 -26 -12 -15 -14 -15 -22 -1 -13 23 -31 20 -62 -13 -25 -26 -26 -33 -20 -80 6 -46 4 -55 -16 -76 -13 -14 -21 -27 -18 -30 3 -3 18 9 33 26 22 27 26 39 21 70 -4 28 -1 43 15 63 26 33 39 26 39 -22 l1 -37 24 46 c13 25 31 52 40 59 16 13 14 15 -16 25 -23 8 -34 18 -34 31 0 25 41 31 65 9 11 -10 20 -13 24 -6 7 11 -56 42 -83 40 -9 0 -30 -11 -48 -23z" fill="#5c43c2"/>
<path d="M898 333 c7 -3 16 -2 19 1 4 3 -2 6 -13 5 -11 0 -14 -3 -6 -6z" fill="#5c43c2"/>
<path d="M780 298 c-14 -6 -20 -12 -13 -15 7 -2 23 3 35 11 25 18 15 20 -22 4z" fill="#5c43c2"/>
<path d="M865 290 c10 -11 22 -17 27 -14 5 3 1 12 -9 20 -27 20 -39 17 -18 -6z" fill="#5c43c2"/>
<path d="M1238 289 c-8 -13 -30 -25 -53 -29 l-40 -8 38 -1 c21 0 36 -5 32 -11 -8 -12 5 -61 15 -55 4 2 10 22 14 43 3 22 13 45 21 52 8 7 15 16 15 21 0 17 -28 9 -42 -12z" fill="#5c43c2"/>
<path d="M725 290 c3 -5 10 -10 16 -10 5 0 9 5 9 10 0 6 -7 10 -16 10 -8 0 -12 -4 -9 -10z" fill="#5c43c2"/>
<path d="M920 294 c8 -4 23 -13 32 -21 9 -8 22 -12 27 -8 16 10 13 21 -6 22 -10 1 -29 4 -43 7 -14 3 -18 3 -10 0z" fill="#5c43c2"/>
<path d="M1203 150 c13 -22 23 -25 32 -10 13 20 25 9 20 -17 -5 -25 -4 -24 10 6 8 18 15 34 15 35 0 0 -20 2 -45 3 -42 2 -44 1 -32 -17z" fill="#5c43c2"/>
<path d="M1263 89 c-19 -19 -16 -25 23 -48 30 -18 35 -19 30 -6 -3 9 -6 21 -6 27 0 6 -6 8 -14 5 -9 -4 -16 1 -18 14 -2 16 -5 18 -15 8z" fill="#5c43c2"/>
</g>
</svg>